<mxfile host="app.diagrams.net" modified="2024-02-26T04:25:11.990Z" agent="Mozilla/5.0 (Windows NT 10.0; Win64; x64) AppleWebKit/537.36 (KHTML, like Gecko) Chrome/121.0.0.0 Safari/537.36 Edg/121.0.0.0" version="23.1.6" etag="rfa3tuUa95ZRJ4DThBF3" type="github">
  <diagram name="Page-1" id="aRiu__sDw1mP1haaZRWw">
    <mxGraphModel>
      <root>
        <mxCell id="0" />
        <mxCell id="1" parent="0" />
      </root>
    </mxGraphModel>
  </diagram>
</mxfile>
